<?xml version="1.0" standalone="no"?><svg xmlns="http://www.w3.org/2000/svg" viewBox="0 0 1440 320"><path fill="#F9A84D" fill-opacity="1" d="M0,32L30,58.7C60,85,120,139,180,149.3C240,160,300,128,360,149.3C420,171,480,245,540,277.3C600,309,660,299,720,250.7C780,203,840,117,900,106.7C960,96,1020,160,1080,186.7C1140,213,1200,203,1260,192C1320,181,1380,171,1410,165.3L1440,160L1440,320L1410,320C1380,320,1320,320,1260,320C1200,320,1140,320,1080,320C1020,320,960,320,900,320C840,320,780,320,720,320C660,320,600,320,540,320C480,320,420,320,360,320C300,320,240,320,180,320C120,320,60,320,30,320L0,320Z"></path></svg>